<?xml version="1.0" encoding="iso-8859-1"?>
<!-- Uploaded to: SVG Repo, www.svgrepo.com, Generator: SVG Repo Mixer Tools -->
<svg fill="#000000" version="1.1" id="Layer_1" xmlns="http://www.w3.org/2000/svg" xmlns:xlink="http://www.w3.org/1999/xlink" 
	 viewBox="0 0 496 496" xml:space="preserve">
<g>
	<g>
		<g>
			<path d="M427.312,0H112v88.632C102.376,83.032,91.44,80,80,80c-35.288,0-64,28.712-64,64c0,35.288,28.712,64,64,64
				c11.44,0,22.376-3.032,32-8.632V208H80H0v288h112h8h376V68.688L427.312,0z M112,387.68C103.176,395.616,91.952,400,80,400
				c-26.472,0-48-21.528-48-48s21.528-48,48-48c11.952,0,23.176,4.384,32,12.32V387.68z M112,296.632
				c-9.624-5.6-20.56-8.632-32-8.632c-35.288,0-64,28.712-64,64c0,35.288,28.712,64,64,64c11.44,0,22.376-3.032,32-8.632V480H16V352
				V224h96V296.632z M112,179.68C103.176,187.616,91.952,192,80,192c-26.472,0-48-21.528-48-48s21.528-48,48-48
				c11.952,0,23.176,4.384,32,12.32V179.68z M432,27.312L468.688,64H432V27.312z M480,480H128V16h288v64h64V480z"/>
			<path d="M144,360h240v48h80v-48v-8V152H144V360z M400,168h48v32h-48V168z M400,216h48v32h-48V216z M400,264h48v32h-48V264z
				 M400,312h48v32h-48V312z M400,360h48v32h-48V360z M336,168h48v32h-48V168z M336,216h48v32h-48V216z M336,264h48v32h-48V264z
				 M336,312h48v32h-48V312z M160,168h160v32H160V168z M160,216h160v32H160V216z M160,264h160v32H160V264z M160,312h160v32H160V312z
				"/>
			<rect x="144" y="120" width="120" height="16"/>
			<path d="M304,96c17.648,0,32-14.352,32-32s-14.352-32-32-32s-32,14.352-32,32S286.352,96,304,96z M304,48c8.824,0,16,7.176,16,16
				s-7.176,16-16,16c-8.824,0-16-7.176-16-16S295.176,48,304,48z"/>
			<path d="M72,104v8.408c-9.12,1.856-16,9.936-16,19.592c0,11.032,8.976,20,20,20h8c2.208,0,4,1.8,4,4s-1.792,4-4,4h-8
				c-2.208,0-4-1.8-4-4v-4H56v4c0,9.664,6.88,17.736,16,19.592V184h16v-8.408c9.12-1.856,16-9.936,16-19.592
				c0-11.032-8.976-20-20-20h-8c-2.208,0-4-1.8-4-4s1.792-4,4-4h8c2.208,0,4,1.8,4,4v4h16v-4c0-9.664-6.88-17.736-16-19.592V104H72z
				"/>
		</g>
	</g>
</g>
</svg>