<!DOCTYPE svg PUBLIC "-//W3C//DTD SVG 1.1//EN" "http://www.w3.org/Graphics/SVG/1.1/DTD/svg11.dtd">
<!-- Uploaded to: SVG Repo, www.svgrepo.com, Transformed by: SVG Repo Mixer Tools -->
<svg version="1.1" id="Uploaded to svgrepo.com" xmlns="http://www.w3.org/2000/svg" xmlns:xlink="http://www.w3.org/1999/xlink" width="800px" height="800px" viewBox="0 0 32 32" xml:space="preserve" fill="#000000">
<g id="SVGRepo_bgCarrier" stroke-width="0"/>
<g id="SVGRepo_tracerCarrier" stroke-linecap="round" stroke-linejoin="round"/>
<g id="SVGRepo_iconCarrier"> <style type="text/css"> .linesandangles_een{fill:#111918;} </style> <path class="linesandangles_een" d="M24,6V4h-2v2H12V4h-2v2H7v20h20V6H24z M25,24H9V12h16V24z M9,10V8h1v1h2V8h10v1h2V8h1v2H9z M13,16h-2v-2h4v8h-2V16z M23,14h-6v8h6V14z M21,20h-2v-4h2V20z M6,27h19v2H4V8h2V27z"/> </g>
</svg>